<svg width="200" height="80" xmlns="http://www.w3.org/2000/svg">
 <title>Animal_logo</title>

 <g>
  <title>Layer 1</title>
  <g stroke="null" id="svg_19">
   <path stroke="#ffd4aa" stroke-width="5" id="svg_3" d="m78.98248,36.17137c-0.41153,-33.53247 11.37575,-35.5031 11.46572,-0.03851" fill="none"/>
   <path stroke="#ffd4aa" id="svg_4" d="m95.01207,26.39592c-11.10441,-1.42532 -9.72855,0.42384 -20.03822,-2.30513" stroke-width="5" fill="none"/>
   <path stroke="#ffd4aa" stroke-width="5" id="svg_5" d="m101.02293,36.17137c-3.87917,-55.22898 6.31157,-1.44074 9.2182,-1.69188c2.90662,-0.25115 1.12211,-16.51109 3.54401,-25.1409" fill="none"/>
   <path stroke="#ffd4aa" id="svg_6" d="m122.97676,10.88684c-0.14968,14.51366 1.53494,12.56831 -0.00423,26.16684" stroke-width="5" fill="none"/>
   <path stroke="#ffd4aa" stroke-width="5" id="svg_7" d="m132.78711,36.60354c-3.87918,-55.22898 6.31157,-1.44073 9.2182,-1.69187c1.45331,-0.12558 1.30167,-18.08265 4.76284,-21.74517c3.46118,-3.66252 5.78136,13.66806 3.53499,22.75029" fill="none"/>
   <path stroke="#ffd4aa" stroke-width="5" id="svg_8" d="m159.79745,38.3322c-0.41154,-33.53247 11.37575,-35.5031 11.46572,-0.03851" fill="none"/>
   <path stroke="#ffd4aa" id="svg_9" d="m174.96271,27.26026c-11.10441,-1.42532 -3.02998,0.42384 -20.03822,-2.30512" stroke-width="5" fill="none"/>
   <path stroke="#ffd4aa" id="svg_10" d="m180.88696,9.59035c-0.07484,7.25683 -2.28409,19.47439 -2.07404,22.50207c0.21005,3.02769 6.72889,2.26758 13.09005,4.09693" stroke-width="5" fill="none"/>
  </g>
  <g id="svg_20">
   <g stroke="null">
    <g stroke="null">
     <path fill="#cccccc" stroke="#cccccc" d="m34.31328,0.90899l0.0104,0l0,0.00455c8.9702,0.0026 17.09273,3.641 22.97059,9.52016c5.86811,5.87071 9.50326,13.98608 9.50911,22.94914l0.00455,0l0,0.02145l0,0.026l-0.00455,0c-0.00325,3.61239 -0.59611,7.08893 -1.68626,10.33078c-0.18267,0.5441 -0.37379,1.06675 -0.5701,1.566l0,0.00455c-0.93999,2.37923 -2.15496,4.62844 -3.60589,6.70019l18.9051,16.99197l0.0117,0.0104l0.10206,0.09491l0.00715,0.00715c1.0674,1.01605 1.64856,2.37663 1.72201,3.75736c0.07151,1.36513 -0.35298,2.76146 -1.28647,3.88152l-0.00715,0.0104l-0.11376,0.13196l-0.02275,0.02275l-0.09491,0.10401l-0.0104,0.01365c-1.01735,1.0674 -2.37533,1.64726 -3.75736,1.72006c-1.36318,0.07216 -2.76081,-0.35103 -3.88152,-1.28582l-0.00975,-0.00715l-0.13261,-0.11376l-0.01885,-0.0156l-19.33609,-17.37876c-0.57205,0.40304 -1.15581,0.78592 -1.74672,1.14736c-0.80153,0.4908 -1.63166,0.95299 -2.47869,1.37488c-4.35476,2.17251 -9.27573,3.39462 -14.47818,3.39462l0,0.00455l-0.0104,0l0,-0.00455c-8.9702,-0.0026 -17.09403,-3.641 -22.97189,-9.52016c-5.87006,-5.87071 -9.50326,-13.98738 -9.50911,-22.94784l-0.00455,0l0,-0.02145l0,-0.0104l0.00455,0c0.0026,-8.9702 3.641,-17.09403 9.52016,-22.97189c5.87071,-5.86746 13.98608,-9.50261 22.94914,-9.50846l0,-0.00455l0.02145,0l0,0zm0.0104,7.28719l0,0.00455l-0.0104,0l-0.02145,0l0,-0.00455c-6.94656,0.00455 -13.24306,2.82777 -17.8013,7.38405c-4.55758,4.55628 -7.3834,10.85928 -7.38535,17.8143l0.00455,0l0,0.0104l0,0.02145l-0.00455,0c0.00455,6.94656 2.82582,13.23981 7.38405,17.79935c4.55628,4.55823 10.85928,7.38405 17.81365,7.38535l0,-0.00455l0.0104,0l0.02145,0l0,0.00455c6.94656,-0.00455 13.24046,-2.82647 17.8,-7.38405c4.55758,-4.55628 7.3834,-10.85733 7.3847,-17.8117l-0.0039,0l0,-0.0104l0,-0.02145l0.0039,0c-0.0039,-6.94656 -2.82777,-13.24306 -7.3834,-17.8013c-4.55628,-4.55823 -10.85733,-7.38405 -17.81235,-7.386l0,0z"/>
    </g>
   </g>
   <g stroke="null">
    <g stroke="null" transform="rotate(15.0876 34.3475 32.1634) matrix(0.845416 0.140189 -0.140189 0.845416 12.2121 2.96743)">
     <path fill="#ffd4aa" clip-rule="evenodd" fill-rule="evenodd" d="m25.76865,13.0778c2.5099,0 4.5472,3.12136 4.5472,6.96898s-2.03729,6.96898 -4.5472,6.96898c-2.5099,0 -4.5472,-3.11869 -4.5472,-6.96898c0.00267,-3.84763 2.03729,-6.96898 4.5472,-6.96898l0,0zm5.78079,16.86975c5.3242,0.01068 5.98638,3.53789 10.47484,9.57501c2.23755,4.39233 -0.66753,7.16123 -5.64728,5.9757c-2.25891,-1.15082 -3.84763,-1.55667 -5.44168,-1.50327c-2.76089,0.09612 -3.45779,1.91714 -6.66993,1.78897c-2.47786,-0.06675 -3.59397,-1.10543 -3.81025,-2.6888c-0.2323,-1.68217 0.41654,-2.74487 1.20689,-4.136c3.07063,-5.41498 6.24538,-9.68983 9.88741,-9.01162l0,0l0,0zm-14.56277,-6.53376c-1.87709,0.74229 -2.47519,3.67674 -1.33772,6.55245c1.13747,2.87571 3.58062,4.60594 5.4577,3.86365c1.87709,-0.74229 2.47519,-3.67674 1.33772,-6.55245c-1.13747,-2.87571 -3.58062,-4.60594 -5.4577,-3.86365l0,0zm28.13761,0c1.87709,0.74229 2.47519,3.67674 1.33772,6.55245c-1.13747,2.87571 -3.58329,4.60594 -5.4577,3.86365c-1.87709,-0.74229 -2.47519,-3.67674 -1.33772,-6.55245c1.13747,-2.87571 3.58062,-4.60594 5.4577,-3.86365l0,0zm-8.86476,-10.43479c2.5099,0 4.5472,3.12136 4.5472,6.96898s-2.03729,6.96898 -4.5472,6.96898c-2.5099,0 -4.5472,-3.11869 -4.5472,-6.96898c0.00267,-3.84763 2.03729,-6.96898 4.5472,-6.96898l0,0z" class="st0"/>
    </g>
   </g>
  </g>
  <g stroke="null" id="svg_21">
   <path stroke="#ffd4aa" id="svg_11" d="m95.07566,72.49349c-0.21355,-25.19892 -5.49008,-24.11611 12.50494,-24.68581c-4.74316,0.41527 -14.18443,-1.9456 -13.58884,-0.88967l1.0839,25.57549z" stroke-width="5" fill="none"/>
   <path stroke="#ffd4aa" id="svg_12" d="m104.53409,59.69554c-6.71397,-1.40861 -3.74659,1.27307 -9.98005,-1.42391" stroke-width="5" fill="none"/>
   <path stroke="#ffd4aa" id="svg_13" d="m113.59211,45.22243c-0.14792,14.34354 1.51696,12.421 -0.00417,25.86014" stroke-width="5" fill="none"/>
   <path stroke="#ffd4aa" stroke-width="5" id="svg_14" d="m122.86041,70.42421c-3.83371,-54.58165 6.23759,-1.42385 9.11015,-1.67204c2.87255,-0.2482 1.10896,-16.31757 3.50247,-24.84623" fill="none"/>
   <path stroke="#ffd4aa" stroke-width="5" id="svg_15" d="m142.36295,71.03092c0.00884,-9.29972 -3.54425,-29.06148 4.8609,-26.0733c8.40516,2.98818 14.67425,25.09595 -7.10126,24.79275" fill="none"/>
   <path stroke="#ffd4aa" id="svg_16" d="m173.99341,46.35691c-7.44144,-0.72959 -10.69255,-0.82758 -11.41924,3.17899c-0.72669,4.00657 -2.07093,16.67119 -1.48707,19.61263c0.58385,2.94145 5.38108,1.63069 11.19375,2.85498" stroke-width="5" fill="none"/>
   <path stroke="#ffd4aa" id="svg_17" d="m193.1101,71.30137c-2.11207,-5.18216 -10.26956,-12.84307 -8.18574,-13.73895c2.08382,-0.89588 6.22656,-2.73157 5.96199,-4.69787c-0.52914,-3.93259 -8.85042,-13.27569 -9.60082,-6.01374c-0.7504,7.26195 0.21994,17.88912 -0.54062,24.60869" stroke-width="5" fill="none"/>
   <path stroke="#ffd4aa" id="svg_18" d="m170.94819,60.12264c-6.12227,-1.40861 -5.36371,0.41887 -11.04781,-2.27811" stroke-width="5" fill="none"/>
  </g>
 </g>
</svg>