<svg width="200" height="80" xmlns="http://www.w3.org/2000/svg">
 <title>Animal_logo</title>

 <g>
  <title>Layer 1</title>
  <g stroke="null">
   <g stroke="null">
    <path fill="#cccccc" stroke="#cccccc" d="m34.31328,0.90899l0.0104,0l0,0.00455c8.9702,0.0026 17.09273,3.641 22.97059,9.52016c5.86811,5.87071 9.50326,13.98608 9.50911,22.94914l0.00455,0l0,0.02145l0,0.026l-0.00455,0c-0.00325,3.61239 -0.59611,7.08893 -1.68626,10.33078c-0.18267,0.5441 -0.37379,1.06675 -0.5701,1.566l0,0.00455c-0.93999,2.37923 -2.15496,4.62844 -3.60589,6.70019l18.9051,16.99197l0.0117,0.0104l0.10206,0.09491l0.00715,0.00715c1.0674,1.01605 1.64856,2.37663 1.72201,3.75736c0.07151,1.36513 -0.35298,2.76146 -1.28647,3.88152l-0.00715,0.0104l-0.11376,0.13196l-0.02275,0.02275l-0.09491,0.10401l-0.0104,0.01365c-1.01735,1.0674 -2.37533,1.64726 -3.75736,1.72006c-1.36318,0.07216 -2.76081,-0.35103 -3.88152,-1.28582l-0.00975,-0.00715l-0.13261,-0.11376l-0.01885,-0.0156l-19.33609,-17.37876c-0.57205,0.40304 -1.15581,0.78592 -1.74672,1.14736c-0.80153,0.4908 -1.63166,0.95299 -2.47869,1.37488c-4.35476,2.17251 -9.27573,3.39462 -14.47818,3.39462l0,0.00455l-0.0104,0l0,-0.00455c-8.9702,-0.0026 -17.09403,-3.641 -22.97189,-9.52016c-5.87006,-5.87071 -9.50326,-13.98738 -9.50911,-22.94784l-0.00455,0l0,-0.02145l0,-0.0104l0.00455,0c0.0026,-8.9702 3.641,-17.09403 9.52016,-22.97189c5.87071,-5.86746 13.98608,-9.50261 22.94914,-9.50846l0,-0.00455l0.02145,0l0,0zm0.0104,7.28719l0,0.00455l-0.0104,0l-0.02145,0l0,-0.00455c-6.94656,0.00455 -13.24306,2.82777 -17.8013,7.38405c-4.55758,4.55628 -7.3834,10.85928 -7.38535,17.8143l0.00455,0l0,0.0104l0,0.02145l-0.00455,0c0.00455,6.94656 2.82582,13.23981 7.38405,17.79935c4.55628,4.55823 10.85928,7.38405 17.81365,7.38535l0,-0.00455l0.0104,0l0.02145,0l0,0.00455c6.94656,-0.00455 13.24046,-2.82647 17.8,-7.38405c4.55758,-4.55628 7.3834,-10.85733 7.3847,-17.8117l-0.0039,0l0,-0.0104l0,-0.02145l0.0039,0c-0.0039,-6.94656 -2.82777,-13.24306 -7.3834,-17.8013c-4.55628,-4.55823 -10.85733,-7.38405 -17.81235,-7.386l0,0z"/>
   </g>
  </g>
  <g stroke="null">
   <g stroke="null" transform="rotate(15.0876 34.3475 32.1634) matrix(0.845416 0.140189 -0.140189 0.845416 12.2121 2.96743)">
    <path fill="#ffd4aa" clip-rule="evenodd" fill-rule="evenodd" d="m25.76865,13.0778c2.5099,0 4.5472,3.12136 4.5472,6.96898s-2.03729,6.96898 -4.5472,6.96898c-2.5099,0 -4.5472,-3.11869 -4.5472,-6.96898c0.00267,-3.84763 2.03729,-6.96898 4.5472,-6.96898l0,0zm5.78079,16.86975c5.3242,0.01068 5.98638,3.53789 10.47484,9.57501c2.23755,4.39233 -0.66753,7.16123 -5.64728,5.9757c-2.25891,-1.15082 -3.84763,-1.55667 -5.44168,-1.50327c-2.76089,0.09612 -3.45779,1.91714 -6.66993,1.78897c-2.47786,-0.06675 -3.59397,-1.10543 -3.81025,-2.6888c-0.2323,-1.68217 0.41654,-2.74487 1.20689,-4.136c3.07063,-5.41498 6.24538,-9.68983 9.88741,-9.01162l0,0l0,0zm-14.56277,-6.53376c-1.87709,0.74229 -2.47519,3.67674 -1.33772,6.55245c1.13747,2.87571 3.58062,4.60594 5.4577,3.86365c1.87709,-0.74229 2.47519,-3.67674 1.33772,-6.55245c-1.13747,-2.87571 -3.58062,-4.60594 -5.4577,-3.86365l0,0zm28.13761,0c1.87709,0.74229 2.47519,3.67674 1.33772,6.55245c-1.13747,2.87571 -3.58329,4.60594 -5.4577,3.86365c-1.87709,-0.74229 -2.47519,-3.67674 -1.33772,-6.55245c1.13747,-2.87571 3.58062,-4.60594 5.4577,-3.86365l0,0zm-8.86476,-10.43479c2.5099,0 4.5472,3.12136 4.5472,6.96898s-2.03729,6.96898 -4.5472,6.96898c-2.5099,0 -4.5472,-3.11869 -4.5472,-6.96898c0.00267,-3.84763 2.03729,-6.96898 4.5472,-6.96898l0,0z" class="st0"/>
   </g>
  </g>
  <path transform="rotate(-7.36188 84.8565 20.8171)" stroke-width="5" stroke="#ffd4aa" id="svg_3" d="m78.40229,33.11205c4.06208,-34.79503 16.53758,-35.25885 11.88375,1.49483" fill="none"/>
  <path stroke="#ffd4aa" id="svg_4" d="m96.77575,23.62608c-11.59989,-1.48892 -10.16264,0.44275 -20.93233,-2.40798" stroke-width="5" fill="none"/>
  <path transform="rotate(-7.36188 109.721 19.8227)" stroke-width="5" stroke="#ffd4aa" id="svg_5" d="m101.31394,32.86805c3.37372,-57.73696 6.73169,-0.64779 9.7766,-0.51891c3.0449,0.12887 3.37258,-16.95544 7.03682,-25.57182" fill="none"/>
  <path transform="rotate(-95.0447 125.986 21.0922)" stroke="#ffd4aa" id="svg_6" d="m139.60009,22.29618c-15.08878,-1.48892 -13.21925,0.44275 -27.22814,-2.40798" stroke-width="5" fill="none"/>
  <path transform="rotate(-7.36188 144.997 20.9607)" stroke-width="5" stroke="#ffd4aa" id="svg_7" d="m134.60069,33.05669c3.37371,-57.73696 6.73169,-0.64779 9.7766,-0.51891c1.52245,0.06443 3.76896,-18.55956 7.84501,-21.89067c4.07605,-3.33111 4.16003,14.93409 0.61708,24.04268" fill="none"/>
  <path transform="rotate(-7.36188 169.277 23.0743)" stroke-width="5" stroke="#ffd4aa" id="svg_8" d="m162.82324,35.3693c4.06207,-34.79503 16.53758,-35.25885 11.88374,1.49483" fill="none"/>
  <path stroke="#ffd4aa" id="svg_9" d="m180.2938,24.52898c-11.59989,-1.48892 -3.16518,0.44275 -20.93233,-2.40798" stroke-width="5" fill="none"/>
  <path transform="rotate(-95.0447 190.132 20.1493)" stroke="#ffd4aa" id="svg_10" d="m204.47663,17.75228c-7.54439,-0.74446 -20.05473,-4.16561 -23.22455,-4.22515c-3.16983,-0.05954 -2.97768,6.79362 -5.46557,13.24483" stroke-width="5" fill="none"/>
  <path id="svg_11" d="m89.48679,75.07534c-0.22573,-26.63549 -5.80306,-25.49095 13.21784,-26.09313c-5.01356,0.43895 -14.99307,-2.05652 -14.36353,-0.94039l1.14569,27.03352z" stroke-width="5" stroke="#ffd4aa" fill="none"/>
  <path stroke="#ffd4aa" id="svg_12" d="m99.48444,61.54779c-7.09673,-1.48891 -3.96018,1.34565 -10.549,-1.50508" stroke-width="5" fill="none"/>
  <path transform="rotate(-95.0447 109.057 59.9168)" stroke="#ffd4aa" id="svg_13" d="m122.67076,61.12079c-15.08878,-1.48892 -13.21925,0.44275 -27.22814,-2.40798" stroke-width="5" fill="none"/>
  <path transform="rotate(-7.36188 125.522 58.873)" stroke-width="5" stroke="#ffd4aa" id="svg_14" d="m117.11465,71.91838c3.37371,-57.73696 6.73169,-0.64779 9.7766,-0.51891c3.0449,0.12887 3.37258,-16.95544 7.03682,-25.57182" fill="none"/>
  <path transform="rotate(85.5213 144.45 59.3291)" stroke-width="5" stroke="#ffd4aa" id="svg_15" d="m158.218,65.40277c-9.79915,-0.77691 -30.917,1.33614 -27.07435,-7.27442c3.84265,-8.61055 27.65686,-13.39204 25.54,9.52957" fill="none"/>
  <path transform="rotate(-95.0447 166.2 61.0017)" stroke="#ffd4aa" id="svg_16" d="m179.1112,68.87087c1.45984,-7.76739 1.8652,-11.18142 -2.28583,-12.31896c-4.15103,-1.13754 -17.36085,-3.73003 -20.51221,-3.38868c-3.15136,0.34135 -2.21713,5.51426 -4.04646,11.52071" stroke-width="5" fill="none"/>
  <path transform="rotate(-95.0447 185.321 59.6954)" stroke="#ffd4aa" id="svg_17" d="m170.57115,66.21249c5.65268,-1.74217 14.47717,-9.61926 15.22677,-7.34191c0.7496,2.27735 2.29737,6.80992 4.39231,6.71411c4.18986,-0.19162 14.80078,-8.08481 7.22431,-9.54989c-7.57647,-1.46508 -18.85616,-1.43114 -25.86061,-2.8565" stroke-width="5" fill="none"/>
  <path stroke="#ffd4aa" id="svg_18" d="m169.68476,61.99924c-6.47129,-1.48891 -5.66949,0.44275 -11.67763,-2.40798" stroke-width="5" fill="none"/>
 </g>
</svg>